<?xml version="1.0" encoding="UTF-8"?>
<svg width="29px" height="29px" viewBox="0 0 29 29" version="1.1" xmlns="http://www.w3.org/2000/svg" xmlns:xlink="http://www.w3.org/1999/xlink">
    <!-- Generator: Sketch 63.1 (92452) - https://sketch.com -->
    <title>Group 3</title>
    <desc>Created with Sketch.</desc>
    <defs>
        <polygon id="path-1" points="0.0001 -3.55271368e-15 28.397 -3.55271368e-15 28.397 28.3967 0.0001 28.3967"></polygon>
    </defs>
    <g id="Page-1" stroke="none" stroke-width="1" fill="none" fill-rule="evenodd">
        <g id="Group-3">
            <mask id="mask-2" fill="white">
                <use xlink:href="#path-1"></use>
            </mask>
            <g id="Clip-2"></g>
            <path d="M21.8561,-3.55271368e-15 L6.5401,-3.55271368e-15 C2.9281,-3.55271368e-15 0.0001,2.928 0.0001,6.541 L0.0001,21.856 C0.0001,25.468 2.9281,28.397 6.5401,28.397 L21.8561,28.397 C25.4681,28.397 28.3971,25.468 28.3971,21.856 L28.3971,6.541 C28.3971,2.928 25.4681,-3.55271368e-15 21.8561,-3.55271368e-15 M14.1991,20.719 C10.6031,20.719 7.6781,17.794 7.6781,14.198 C7.6781,10.603 10.6031,7.678 14.1991,7.678 C17.7931,7.678 20.7181,10.603 20.7181,14.198 C20.7181,17.794 17.7931,20.719 14.1991,20.719 M21.9021,8.428 C20.8341,8.428 19.9681,7.562 19.9681,6.494 C19.9681,5.426 20.8341,4.56 21.9021,4.56 C22.9701,4.56 23.8361,5.426 23.8361,6.494 C23.8361,7.562 22.9701,8.428 21.9021,8.428" id="Fill-1" fill="#161616" mask="url(#mask-2)"></path>
        </g>
    </g>
</svg>