<?xml version="1.0" encoding="UTF-8"?>
<svg width="29px" height="29px" viewBox="0 0 29 29" version="1.1" xmlns="http://www.w3.org/2000/svg" xmlns:xlink="http://www.w3.org/1999/xlink">
    <!-- Generator: Sketch 63.1 (92452) - https://sketch.com -->
    <title>Fill 1</title>
    <desc>Created with Sketch.</desc>
    <g id="Page-1" stroke="none" stroke-width="1" fill="none" fill-rule="evenodd">
        <path d="M28.336,22.379 C28.336,22.741 28.269,23.214 28.135,23.798 C28.001,24.381 27.86,24.841 27.712,25.176 C27.43,25.847 26.612,26.558 25.257,27.31 C23.996,27.994 22.748,28.336 21.514,28.336 C21.151,28.336 20.799,28.313 20.457,28.266 C20.115,28.219 19.729,28.135 19.3,28.014 C18.871,27.893 18.552,27.796 18.344,27.722 C18.136,27.648 17.764,27.511 17.227,27.31 C16.69,27.108 16.362,26.988 16.241,26.947 C14.926,26.478 13.752,25.921 12.719,25.277 C11.002,24.217 9.227,22.771 7.396,20.94 C5.565,19.109 4.119,17.334 3.059,15.617 C2.415,14.584 1.858,13.41 1.389,12.095 C1.348,11.974 1.228,11.646 1.026,11.109 C0.825,10.572 0.688,10.2 0.614,9.992 C0.54,9.784 0.443,9.465 0.322,9.036 C0.201,8.607 0.117,8.221 0.07,7.879 C0.023,7.537 0,7.185 0,6.822 C0,5.588 0.342,4.34 1.026,3.079 C1.778,1.724 2.489,0.906 3.16,0.624 C3.495,0.476 3.955,0.335 4.538,0.201 C5.122,0.067 5.595,0 5.957,0 C6.145,0 6.286,0.02 6.38,0.06 C6.621,0.141 6.977,0.651 7.446,1.59 C7.594,1.845 7.795,2.207 8.05,2.677 C8.305,3.146 8.54,3.572 8.754,3.955 C8.969,4.337 9.177,4.696 9.378,5.031 C9.419,5.085 9.536,5.253 9.73,5.534 C9.925,5.816 10.069,6.054 10.163,6.249 C10.257,6.443 10.304,6.635 10.304,6.822 C10.304,7.091 10.113,7.426 9.73,7.829 C9.348,8.231 8.932,8.6 8.483,8.936 C8.033,9.271 7.617,9.626 7.235,10.002 C6.853,10.378 6.661,10.686 6.661,10.928 C6.661,11.049 6.695,11.2 6.762,11.381 C6.829,11.562 6.886,11.699 6.933,11.793 C6.98,11.887 7.074,12.048 7.215,12.276 C7.356,12.504 7.433,12.632 7.446,12.659 C8.466,14.497 9.633,16.073 10.948,17.388 C12.263,18.703 13.839,19.87 15.677,20.89 C15.704,20.903 15.832,20.98 16.06,21.121 C16.288,21.262 16.449,21.356 16.543,21.403 C16.637,21.45 16.774,21.507 16.955,21.574 C17.136,21.641 17.287,21.675 17.408,21.675 C17.65,21.675 17.958,21.483 18.334,21.101 C18.71,20.719 19.065,20.303 19.4,19.853 C19.736,19.404 20.105,18.988 20.507,18.606 C20.91,18.223 21.245,18.032 21.514,18.032 C21.701,18.032 21.893,18.079 22.087,18.173 C22.282,18.267 22.52,18.411 22.802,18.606 C23.083,18.8 23.251,18.918 23.305,18.958 C23.64,19.159 23.999,19.367 24.381,19.582 C24.764,19.796 25.19,20.031 25.659,20.286 C26.129,20.541 26.491,20.742 26.746,20.89 C27.685,21.359 28.195,21.715 28.276,21.956 C28.316,22.05 28.336,22.191 28.336,22.379" id="Fill-1" fill="#000000"></path>
    </g>
</svg>